<svg height="511pt" viewBox="0 1 511 511.99964" width="511pt" xmlns="http://www.w3.org/2000/svg"><path d="m512.488281 265.421875c-2.371093 64.789063-28.949219 125.726563-74.828125 171.597656-48.359375 48.339844-112.652344 74.96875-181.039062 74.980469h-.042969c-68.398437 0-132.699219-26.628906-181.070313-74.980469-48.367187-48.351562-75.007812-112.640625-75.007812-181.019531s26.640625-132.667969 75.007812-181.019531c48.371094-48.351563 112.671876-74.980469 181.070313-74.980469h.042969c53.238281.0117188 103.988281 16.152344 146.679687 46.109375l-5.972656-27.980469c-1.730469-8.097656 3.441406-16.066406 11.539063-17.796875 8.101562-1.722656 16.070312 3.4375 17.800781 11.539063l15.050781 70.589844c1.011719 4.800781-.328125 10-4.058594 13.730468-2.929687 2.929688-6.769531 4.398438-10.609375 4.398438l-74.390625.050781h-.011718c-8.277344 0-15-6.710937-15-14.988281-.007813-8.292969 6.699218-15.011719 14.992187-15.011719l33.339844-.03125c-37.660157-26.378906-82.410157-40.597656-129.359375-40.609375h-.042969c-60.390625 0-117.160156 23.511719-159.859375 66.199219-42.699219 42.679687-66.21875 99.429687-66.21875 159.800781s23.519531 117.121094 66.21875 159.800781c42.699219 42.6875 99.46875 66.199219 159.859375 66.199219h.042969c60.378906-.011719 117.136718-23.519531 159.828125-66.199219 40.507812-40.492187 63.96875-94.28125 66.058593-151.46875.3125-8.28125 7.222657-14.742187 15.542969-14.453125 8.277344.3125 14.738281 7.269532 14.4375 15.542969zm0 0" fill="#00e7f0"/><path d="m407.738281 256c0 83.328125-67.769531 151.121094-151.117187 151.191406h-.121094c-83.390625 0-151.242188-67.820312-151.242188-151.191406s67.851563-151.191406 151.242188-151.191406h.121094c83.347656.070312 151.117187 67.863281 151.117187 151.191406zm0 0" fill="#f1f2f2"/><path d="m256.621094 407.191406v-302.382812c83.347656.070312 151.117187 67.863281 151.117187 151.191406s-67.769531 151.121094-151.117187 151.191406zm0 0" fill="#d1d4d5"/><path d="m180.6875 301.082031v-15.726562c0-4.648438 1.726562-9.296875 5.175781-13.945313 3.449219-4.648437 7.621094-8.808594 12.503907-12.484375l14.796874-11.078125c5.113282-3.691406 9.4375-7.546875 12.976563-11.566406s5.308594-7.929688 5.308594-11.730469c0-3.042969-1.035157-5.730469-3.101563-8.066406-2.070312-2.332031-5.171875-3.5-9.308594-3.5-3.589843 0-6.53125 1.003906-8.816406 3.011719-2.285156 2.003906-3.429687 5.183594-3.429687 9.53125 0 2.566406-1.191407 4.796875-3.578125 6.691406-2.386719 1.894531-5.539063 2.839844-9.460938 2.839844-7.421875 0-11.132812-4.347656-11.132812-13.050782 0-9.347656 3.609375-16.839843 10.828125-22.480468s15.691406-8.460938 25.425781-8.460938c10.035156 0 18.828125 2.949219 26.382812 8.839844 7.550782 5.890625 11.328126 13.835938 11.328126 23.832031 0 6.515625-1.726563 12.65625-5.179688 18.410157-3.457031 5.757812-7.613281 10.589843-12.46875 14.5-4.859375 3.910156-9.742188 7.496093-14.652344 10.753906-4.914062 3.257812-9.109375 6.433594-12.59375 9.527344-3.480468 3.097656-5.222656 5.949218-5.222656 8.554687v1.464844h42.496094c2.050781 0 3.835937 1.074219 5.351562 3.222656 1.511719 2.148437 2.269532 4.671875 2.269532 7.574219s-.753907 5.480468-2.257813 7.734375c-1.503906 2.257812-3.277344 3.382812-5.316406 3.382812h-57.367188c-2.472656 0-4.914062-.753906-7.332031-2.265625-2.417969-1.515625-3.625-3.355468-3.625-5.515625zm0 0" fill="#2d475c"/><path d="m256.75 274.539062c0-1.59375.429688-3.191406 1.289062-4.789062l37.222657-72.296875c2.257812-4.253906 5.746093-6.386719 10.472656-6.386719 2.578125 0 5.320313.914063 8.222656 2.742188 2.898438 1.828125 4.347657 4.082031 4.347657 6.765625 0 .753906-.269532 1.773437-.804688 3.0625l-28.523438 57.207031h13.859376v-12.050781c0-2.640625 1.234374-4.648438 3.707031-6.023438 2.46875-1.378906 5.421875-2.070312 8.863281-2.070312 3.4375 0 6.390625.691406 8.863281 2.070312 2.46875 1.375 3.703125 3.386719 3.703125 6.023438v12.050781h6.929688c2.472656 0 4.375 1.09375 5.722656 3.273438 1.339844 2.179687 2.015625 4.742187 2.015625 7.683593 0 2.738281-.808594 5.253907-2.417969 7.535157-1.613281 2.28125-3.386718 3.421874-5.320312 3.421874h-6.925782v17.96875c0 2.601563-1.238281 4.605469-3.707031 6.019532-2.472656 1.414062-5.425781 2.117187-8.863281 2.117187s-6.394531-.703125-8.863281-2.117187c-2.472657-1.414063-3.707031-3.417969-3.707031-6.019532v-17.96875h-37.707032c-2.472656 0-4.484375-.734374-6.042968-2.207031-1.558594-1.46875-2.335938-3.472656-2.335938-6.011719zm0 0" fill="#223c4d"/><g fill="#00c7ce"><path d="m385.980469 70.609375c-37.660157-26.378906-82.410157-40.597656-129.359375-40.609375v-30c53.238281.0117188 103.988281 16.152344 146.679687 46.109375l-5.972656-27.980469c-1.730469-8.097656 3.441406-16.066406 11.539063-17.796875 8.101562-1.722656 16.070312 3.4375 17.800781 11.539063l15.050781 70.589844c1.011719 4.800781-.328125 10-4.058594 13.730468-2.929687 2.929688-6.769531 4.398438-10.609375 4.398438l-74.390625.050781h-.011718c-8.277344 0-15-6.710937-15-14.988281-.007813-8.292969 6.699218-15.011719 14.992187-15.011719zm0 0"/><path d="m512.488281 265.421875c-2.371093 64.789063-28.949219 125.726563-74.828125 171.597656-48.359375 48.339844-112.652344 74.96875-181.039062 74.980469v-30c60.378906-.011719 117.136718-23.519531 159.828125-66.199219 40.507812-40.492187 63.96875-94.28125 66.058593-151.46875.3125-8.28125 7.222657-14.742187 15.542969-14.453125 8.277344.3125 14.738281 7.269532 14.4375 15.542969zm0 0"/></g></svg>